HIERARCHY
ROOT Hips
{
  OFFSET 3.13124 94.3669 -3.18751
  CHANNELS  6 Xposition Yposition Zposition Zrotation Xrotation Yrotation
  JOINT LeftUpLeg
  {
    OFFSET 8.64259 1.95398 -2.38835
    CHANNELS 3 Zrotation Xrotation Yrotation
    JOINT LeftLeg
    {
      OFFSET 43.7702 0 0
      CHANNELS 3 Zrotation Xrotation Yrotation
      JOINT LeftFoot
      {
        OFFSET 40.6238 0 0
        CHANNELS 3 Zrotation Xrotation Yrotation
        JOINT LeftToeBase
        {
          OFFSET 12.7242 0 0
          CHANNELS 3 Zrotation Xrotation Yrotation
          End Site
          {
            OFFSET 0 0 0
          }
        }
      }
    }
  }
  JOINT RightUpLeg
  {
    OFFSET -8.2249 1.95398 -2.59336
    CHANNELS 3 Zrotation Xrotation Yrotation
    JOINT RightLeg
    {
      OFFSET 43.5653 0 0
      CHANNELS 3 Zrotation Xrotation Yrotation
      JOINT RightFoot
      {
        OFFSET 40.6238 0 0
        CHANNELS 3 Zrotation Xrotation Yrotation
        JOINT RightToeBase
        {
          OFFSET 12.7242 0 0
          CHANNELS 3 Zrotation Xrotation Yrotation
          End Site
          {
            OFFSET 0 0 0
          }
        }
      }
    }
  }
  JOINT Spine
  {
    OFFSET 0.165834 0.87714 6.61349
    CHANNELS 3 Zrotation Xrotation Yrotation
    JOINT Spine1
    {
      OFFSET 7.38962 1.71661e-005 0
      CHANNELS 3 Zrotation Xrotation Yrotation
      JOINT Spine2
      {
        OFFSET 11.9445 1.14441e-005 0
        CHANNELS 3 Zrotation Xrotation Yrotation
        JOINT Spine3
        {
          OFFSET 14.7254 4.19617e-005 0
          CHANNELS 3 Zrotation Xrotation Yrotation
          JOINT Spine4
          {
            OFFSET 10.9679 0 0
            CHANNELS 3 Zrotation Xrotation Yrotation
            JOINT RightShoulder
            {
              OFFSET 2.46616 -1.6653 3.69651
              CHANNELS 3 Zrotation Xrotation Yrotation
              JOINT RightArm
              {
                OFFSET 13.0012 0 0
                CHANNELS 3 Zrotation Xrotation Yrotation
                JOINT RightForeArm
                {
                  OFFSET 28.7848 1.52588e-005 0
                  CHANNELS 3 Zrotation Xrotation Yrotation
                  JOINT RightHand
                  {
                    OFFSET 26.5688 1.52588e-005 0
                    CHANNELS 3 Zrotation Xrotation Yrotation
                    End Site
                    {
                      OFFSET 0 0 0
                    }
                  }
                }
              }
            }
            JOINT LeftShoulder
            {
              OFFSET 2.38034 -1.29275 -3.75231
              CHANNELS 3 Zrotation Xrotation Yrotation
              JOINT LeftArm
              {
                OFFSET 16.3182 6.10352e-005 0
                CHANNELS 3 Zrotation Xrotation Yrotation
                JOINT LeftForeArm
                {
                  OFFSET 27.0901 0 0
                  CHANNELS 3 Zrotation Xrotation Yrotation
                  JOINT LeftHand
                  {
                    OFFSET 24.5451 1.52588e-005 0
                    CHANNELS 3 Zrotation Xrotation Yrotation
                    End Site
                    {
                      OFFSET 0 0 0
                    }
                  }
                }
              }
            }
            JOINT Neck
            {
              OFFSET 5.0226 -0.0266342 0
              CHANNELS 3 Zrotation Xrotation Yrotation
              JOINT Head
              {
                OFFSET 6.69363 2.86102e-005 0
                CHANNELS 3 Zrotation Xrotation Yrotation
                End Site
                {
                  OFFSET 0 0 0
                }
              }
            }
          }
        }
      }
    }
  }
}
MOTION
Frames:	16
Frame Time:	0.0333333
-37.6379 98.3346 -135.497 56.2586 -70.0327 63.4285 -178.387 3.78812 95.562 -17.7682 -52.7816 -5.30076 33.2544 -8.87405 -9.84843 28.7808 4.1313e-006 -3.56204e-007 -179.974 23.9809 89.6922 -33.8376 4.58331 0.017994 17.192 10.3329 15.2957 28.7808 1.09155e-005 1.12861e-005 -1.23052 5.10175 -89.8628 16.6388 -2.4722 -0.721314 4.97006 -2.50159 -0.611743 -17.5786 -2.14411 -1.43134 2.43407 -2.14412 -1.43135 105.483 -41.3598 -76.2422 37.3116 8.74483 -13.2797 -6.83655 -58.3555 -6.55315 -47.6595 5.32372 -17.342 -93.7164 -26.4125 64.6702 -42.1926 -9.30839 24.0741 41.2335 54.7442 -47.5427 39.6429 -0.699207 -5.94516 54.8059 -3.66848 -27.2157 -54.8889 6.49135 17.3189 
-38.3634 99.6907 -134.112 46.5727 -74.0392 52.3279 -178.942 3.01537 94.1783 -15.047 -54.1573 -5.59975 28.39 1.05217 -0.0777449 28.7808 4.1313e-006 -3.56204e-007 179.945 21.8324 89.0452 -28.3592 1.18036 -0.11326 12.9063 8.78546 14.4178 28.7808 1.09155e-005 1.12861e-005 -1.20911 5.05632 -89.6342 16.7402 -2.27657 -0.134814 5.07127 -2.28018 -0.0346693 -17.4782 -2.12065 -0.811443 2.53443 -2.12068 -0.811472 107.793 -42.6256 -72.3961 32.2514 11.2519 -12.065 -6.62241 -56.6778 -6.3816 -52.0488 6.3887 -18.366 -88.9997 -27.0967 74.254 -34.0197 -11.8596 33.0049 53.3613 50.0007 -61.0346 31.501 0.244778 -3.27245 55.97 -5.28495 -30.799 -56.5663 6.97561 18.7113 
-38.9671 100.698 -132.745 37.2561 -75.5882 41.2556 -179.666 9.88196 92.4182 -22.9649 -36.7768 -2.74225 28.4751 -1.99153 -3.52033 28.7808 4.1313e-006 -3.56204e-007 179.589 19.5521 87.7902 -22.8729 -1.51755 -0.204936 10.3002 8.63438 15.0104 28.7808 1.09155e-005 1.12861e-005 -1.2441 5.01598 -89.6175 16.837 -2.28834 0.461316 5.16794 -2.26407 0.561573 -17.383 -2.32014 -0.247645 2.62967 -2.32015 -0.247655 111.062 -42.6825 -66.8124 25.8392 14.1048 -11.703 -7.26611 -61.3037 -6.90798 -50.6694 5.49999 -16.8769 -83.4861 -27.2148 85.3799 -25.785 -14.2428 35.5233 56.8295 48.8362 -64.5742 26.7785 0.911626 -0.540626 61.3617 -6.90912 -31.8981 -61.8894 7.77288 18.0506 
-39.2584 101.534 -131.328 30.3082 -75.5915 32.4135 -179.752 13.8474 90.8524 -23.2521 -14.9034 -0.814395 30.0027 -3.40462 -4.93502 28.7808 4.1313e-006 -3.56204e-007 179.04 17.6566 86.2492 -17.7996 -2.57733 -0.233395 7.97648 8.3212 15.2575 28.7808 1.09155e-005 1.12861e-005 -0.774011 4.85084 -90.1678 17.1654 -1.59485 -0.488897 5.49542 -1.61547 -0.417171 -17.0457 -1.3891 -0.952803 2.96692 -1.38911 -0.952818 113.381 -30.1806 -59.3177 22.4759 15.5087 -11.4952 -8.76135 -68.5236 -8.22584 -64.1014 7.85038 -18.0015 -80.6361 -39.819 92.2863 -12.0156 -17.5459 24.5553 41.6487 63.4703 -45.4994 32.6218 1.37944 0.303814 71.6529 11.1671 -5.50906 -60.5466 19.0409 -7.44985 
-39.2805 102.321 -129.66 27.0078 -75.9459 27.4954 179.758 8.78692 89.6124 -6.69723 -10.5727 -0.592308 27.5277 0.0800367 -1.42864 28.7808 4.1313e-006 -3.56204e-007 178.33 14.3783 84.9371 -11.9622 -3.04801 -0.239274 4.30409 7.63458 15.3092 28.7808 1.09155e-005 1.12861e-005 -0.751009 4.79431 -89.8627 17.2861 -1.41741 -0.0278275 5.61597 -1.4173 0.0345724 -16.9249 -1.34352 -0.452612 3.08775 -1.34354 -0.452636 116.145 -26.5376 -52.2165 22.8083 15.2432 -15.4177 -6.45738 -55.2821 -6.25344 -78.9431 3.903 -9.90318 -77.1383 -37.0057 98.2636 -7.01398 -18.8169 25.9339 45.4962 61.517 -49.865 28.1216 2.08182 3.57727 72.8186 13.3171 -3.035 -59.889 20.6171 -10.7803 
-39.1363 102.196 -127.858 21.4938 -76.6042 21.9326 179.56 10.5137 89.8905 -3.91242 -3.48379 -0.160375 23.9544 0.330703 -1.26481 28.7808 4.1313e-006 -3.56204e-007 177.545 11.9936 85.0498 -8.41106 -4.07106 -0.269776 1.86674 7.21789 15.6081 28.7808 1.09155e-005 1.12861e-005 -0.45378 4.77149 -90.5994 17.3507 -1.14316 0.285414 5.68022 -1.12932 0.335622 -16.8591 -1.17728 -0.0722648 3.15351 -1.17729 -0.0722689 118.494 -23.541 -45.7163 19.3625 16.879 -19.0872 -5.80642 -48.6566 -5.7747 -72.6141 9.21084 -17.9725 -74.286 -33.5531 103.631 -3.80814 -19.275 19.4022 28.0921 63.7967 -31.2862 30.261 3.21936 6.95332 74.5515 14.2049 -2.23847 -60.3365 21.3749 -11.9028 
-38.9453 102.079 -125.968 13.0494 -76.1915 12.7625 179.467 15.4468 89.5313 -3.83107 2.05506 0.161601 13.7453 -0.344193 -2.71912 28.7808 4.1313e-006 -3.56204e-007 177.139 12.5238 84.3161 -8.79212 -6.36962 -0.395876 1.43503 7.58539 16.4263 28.7808 1.09155e-005 1.12861e-005 -0.248331 4.58769 -90.5016 17.7286 -0.878544 0.713004 6.05786 -0.848946 0.748853 -16.4794 -1.03442 0.429134 3.5333 -1.03443 0.429138 120.035 -22.208 -41.5327 13.8484 19.689 -20.6629 -5.79781 -48.5546 -5.76843 -58.3594 9.14746 -21.4949 -71.5965 -27.7896 109.655 -0.892308 -19.3289 12.1185 7.34722 66.3739 -8.51216 32.9567 3.12382 5.74847 76.2277 11.9169 -4.90872 -63.5002 20.4565 -8.76439 
-38.5205 102.567 -124.17 6.6138 -75.0353 4.66853 179.349 19.3627 87.9777 -4.58122 4.57122 0.327619 -8.84091 1.08591 -2.22445 28.7808 4.1313e-006 -3.56204e-007 176.55 10.8878 82.6434 -3.7875 -7.21028 -0.44677 -0.607746 7.42906 16.7111 28.7808 1.09155e-005 1.12861e-005 -1.15372 4.27717 -88.5483 18.3337 -1.55646 3.03544 6.66005 -1.42129 3.1011 -15.8629 -2.39754 2.42872 4.14975 -2.39756 2.42871 122.065 -36.1661 -45.642 0.387426 25.5911 -15.654 -7.11075 -60.2978 -6.77972 -57.4138 6.88797 -17.8627 -71.9716 -0.0690873 117.468 -8.55797 -19.855 24.8369 63.054 55.1991 -68.2523 18.066 2.09535 7.73021 64.3351 -13.2051 -39.5838 -68.8207 5.34451 22.9558 
-37.8269 102.384 -122.328 1.42761 -74.7343 -1.3975 178.94 18.443 87.1116 -4.26656 5.21799 0.359282 -8.10676 1.27566 -1.67449 28.7808 4.1313e-006 -3.56204e-007 175.83 11.0815 81.3005 -4.06902 -10.7098 -0.636368 -1.46632 8.29738 18.6392 28.7808 1.09155e-005 1.12861e-005 -0.327008 4.18729 -89.4408 18.4924 -0.354361 1.16444 6.82086 -0.305013 1.17644 -15.7114 -0.672943 0.991363 4.30125 -0.672965 0.991335 119.539 -18.4914 -40.0435 3.35979 25.1065 -20.934 -7.77529 -64.2137 -7.34564 -61.2697 3.2286 -10.647 -67.2223 -22.2406 120.357 6.58824 -23.0324 0.785769 7.96822 71.2368 -9.05982 30.3121 2.90437 5.75407 77.8197 8.73658 -9.07123 -70.4462 18.6419 -3.16444 
-37.2152 102.286 -120.141 -11.7882 -74.0592 -15.1804 178.827 17.8618 86.7259 -5.57098 1.28204 0.14869 -8.0828 1.24224 -1.7918 28.7808 4.1313e-006 -3.56204e-007 175.477 10.9298 80.4762 -3.76104 -14.0491 -0.816798 -2.00754 8.4259 19.0875 28.7808 1.09155e-005 1.12861e-005 -0.0570268 4.0594 -89.125 18.7522 0.301932 1.14955 7.08087 0.351951 1.13167 -15.4503 -0.0556012 1.17952 4.56242 -0.0556235 1.1795 118.885 -17.2758 -40.6854 -0.136028 26.9119 -21.2631 -8.65441 -68.1234 -8.12909 -62.3369 -1.7429 -2.21495 -65.6339 -20.4531 124.412 9.96495 -25.3061 -3.35619 11.3253 77.1297 -12.4261 30.6819 3.10531 6.3715 78.0664 6.98991 -11.8767 -73.7582 18.0241 -0.331735 
-36.7624 102.114 -118.213 -23.1732 -71.0483 -26.2081 179.198 18.8489 87.3782 -7.04388 -0.870187 0.0286401 -6.30205 0.857273 -2.52007 28.7808 4.1313e-006 -3.56204e-007 175.845 12.4844 80.9729 -3.77684 -17.1743 -0.984938 -2.01056 7.70209 17.7482 28.7808 1.09155e-005 1.12861e-005 0.125987 3.82182 -88.9871 19.2294 0.763847 0.873052 7.55843 0.801601 0.838892 -14.9751 0.465486 1.06014 5.03751 0.465482 1.06013 118.739 -18.2565 -41.7099 -3.03688 28.8692 -23.3907 -8.71926 -68.3665 -8.1881 -61.9738 -2.42575 -1.03534 -63.0087 -19.1632 130.797 11.2311 -27.6641 -10.4107 13.2414 79.1223 -14.3433 30.1057 3.59254 8.22424 79.712 3.62129 -16.5215 -78.1342 16.5538 4.25815 
-36.1101 102.057 -116.708 -26.8225 -70.0335 -30.0079 178.963 18.1095 86.9613 -6.71178 -1.94948 -0.0353122 -6.05603 0.982272 -2.20252 28.7808 4.1313e-006 -3.56204e-007 175.619 12.6938 80.7645 -3.792 -19.3519 -1.10268 -2.57372 7.0568 16.7671 28.7808 1.09155e-005 1.12861e-005 0.160819 3.80525 -89.0329 19.2672 0.798666 0.887715 7.5962 0.836847 0.851399 -14.9374 0.495584 1.08664 5.07525 0.495572 1.08663 119.175 -19.7961 -41.8309 -4.32383 30.3796 -26.6231 -7.46068 -62.512 -7.07132 -56.8879 0.795307 -6.92287 -60.0454 -19.0007 137.418 10.4068 -29.7861 -19.2002 10.8383 76.5005 -11.9384 30.6358 3.85641 8.89633 81.1862 1.37135 -19.886 -81.7188 15.4971 7.64175 
-35.3691 102.101 -115.383 -27.5094 -71.2454 -30.927 178.377 15.5786 86.0174 -5.31472 -1.65968 -0.0210178 -6.75658 1.66096 -0.769374 28.7808 4.1313e-006 -3.56204e-007 175.05 11.2418 80.0526 -3.8761 -20.8661 -1.18697 -3.3334 6.87006 16.6802 28.7808 1.09155e-005 1.12861e-005 0.110316 4.01932 -89.2361 18.8434 0.560376 1.03383 7.17222 0.605296 1.00815 -15.3602 0.223783 1.15374 4.65241 0.223752 1.1537 118.468 -19.2994 -43.0531 -2.88909 30.154 -28.8977 -5.28901 -41.8444 -5.4426 -34.7929 7.74654 -29.8794 -57.8985 -20.4289 140.916 10.301 -31.3773 -25.1426 9.35687 74.1324 -10.4553 29.4943 3.3192 7.53201 82.198 1.11725 -21.1537 -82.4326 15.5286 9.29186 
-34.7424 101.877 -114.109 -27.965 -71.9392 -31.8094 178.003 14.3497 85.1838 -5.62348 -1.94623 -0.0380186 -5.54403 1.33269 -1.41091 28.7808 4.1313e-006 -3.56204e-007 176.115 15.3076 78.8084 -14.2032 -22.5235 -1.30457 -1.52258 7.40694 17.0303 28.7808 1.09155e-005 1.12861e-005 -0.692864 4.03674 -88.3548 18.7971 -0.583134 2.99769 7.12292 -0.450689 3.02048 -15.3903 -1.45679 2.69509 4.62238 -1.45682 2.69507 118.654 -33.3929 -50.4701 -11.2882 33.2034 -23.3282 -6.62157 -56.6711 -6.3809 -47.7191 8.39238 -24.2454 -63.8722 1.55678 146.145 -2.36038 -25.6845 -30.8585 8.0065 71.106 -9.10292 28.7323 2.35005 4.37706 63.7799 -15.0717 -48.6847 -77.7024 2.50476 31.425 
-34.4086 101.238 -112.874 -27.9077 -72.0654 -32.1383 178.24 16.2328 84.2757 -11.9082 -1.32956 0.00488468 -0.500315 1.55647 -0.709858 28.7808 4.1313e-006 -3.56204e-007 177.905 20.2041 78.0907 -25.6738 -16.916 -1.02707 4.26475 6.70171 13.783 28.7808 1.09155e-005 1.12861e-005 -0.541035 4.11036 -88.2328 18.6415 -0.170751 2.94008 6.96721 -0.0412662 2.94441 -15.5439 -1.04604 2.75218 4.46878 -1.04607 2.75215 117.95 -29.8483 -50.1697 -9.1239 32.0314 -23.2321 -6.63263 -56.7616 -6.38966 -47.0198 8.40319 -24.5996 -64.549 -2.51799 139.35 0.264132 -26.8341 -28.8864 7.81562 70.5822 -8.91169 27.1938 2.32941 4.79173 65.0573 -12.0082 -44.2085 -75.7513 5.06978 28.3972 
-34.2725 100.588 -111.624 -27.0745 -72.7926 -31.3402 178.602 17.3741 83.7937 -17.3356 -1.05054 0.0410712 3.15889 1.67563 -0.358157 28.7808 4.1313e-006 -3.56204e-007 179.446 24.0593 78.0854 -35.4125 -13.3631 -0.959103 9.82087 6.58936 12.1122 28.7808 1.09155e-005 1.12861e-005 -0.440157 4.1727 -88.1234 18.5177 0.0260671 2.96021 6.84345 0.156282 2.95624 -15.6665 -0.865128 2.84066 4.34619 -0.865145 2.84065 116.862 -26.843 -50.8642 -7.24668 30.7162 -22 -6.83645 -58.3545 -6.55302 -46.1955 8.29377 -24.7492 -65.9608 -4.09708 133.706 0.904853 -26.9997 -27.9153 7.66268 70.1421 -8.75828 26.2782 2.42619 5.43583 62.835 -9.03862 -41.7689 -72.0724 6.98636 26.5281 
